<?xml version="1.0" encoding="utf-8"?>
<!-- Generator: Adobe Illustrator 23.0.1, SVG Export Plug-In . SVG Version: 6.00 Build 0)  -->
<svg version="1.1" id="Calque_1" shape-rendering="geometricPrecision" image-rendering="optimizeQuality"
	 xmlns="http://www.w3.org/2000/svg" xmlns:xlink="http://www.w3.org/1999/xlink" x="0px" y="0px" viewBox="0 0 177.2 177.2"
	 style="enable-background:new 0 0 177.2 177.2;" xml:space="preserve">
<style type="text/css">
	.st0{fill-rule:evenodd;clip-rule:evenodd;fill:#1F1A17;}
	.st1{fill-rule:evenodd;clip-rule:evenodd;fill:#FFFFFF;}
</style>
<path class="st0" d="M88.6,149.4c-0.8,3.3-1.8,5.6-3,6.9c-1.2,1.3-2.7,2.6-4.6,4.1c-2.1,1.5-4.6,2.7-7.5,3.7s-6.1,1.3-9.6,0.8
	l-24.7-3.4c-1-0.1-1.9-0.1-2.7,0s-1.5,0.2-2.3,0.2c-1.2,0-2.8,0.3-4.7,0.8c-1.9,0.5-3.4,1.4-4.4,2.4l-8.5-14c1-1.2,2-2,2.8-2.5
	s1.8-1,2.9-1.5c3.4-1.6,7-2.6,10.9-2.9c1.7-0.1,3.3-0.1,4.8-0.1c1.6,0.1,3.2,0,5-0.2c3.2,0.5,6.3,1,9.5,1.4c3.2,0.5,6.4,0.9,9.6,1.4
	c3.5,0,5.9-0.4,7.1-1c0.7-0.4,1.7-1,3.1-1.9s2.8-2.3,4.2-4.1c-3.1-0.3-6.3-0.9-9.5-1.8c-3.2-0.8-6.1-1.7-8.5-2.7l9.1-22.7
	c-4.6-2.6-7.8-4.7-9.6-6.4c-1.8-1.6-3.2-3.5-4.3-5.6c-1.5-2.7-2.5-5.3-2.9-7.8c-0.5-2.5-0.6-4.8-0.6-6.8c0.1-3.5,0.9-7.4,2.5-11.6
	s4.6-8,9.1-11.4c3.7-2.8,7.3-5.7,10.8-8.7s7-6.5,10.4-10.5c-4.3-2.2-6.5-5.8-6.5-10.6c0-3.3,1.1-6.1,3.5-8.5
	c2.3-2.3,5.2-3.5,8.5-3.5s6.1,1.2,8.4,3.5c2.3,2.4,3.5,5.2,3.5,8.5c0,4.8-2.2,8.3-6.5,10.6c3.4,4,6.8,7.5,10.3,10.5
	s7.2,5.9,10.9,8.7c4.4,3.3,7.4,7.1,8.9,11.4c1.6,4.3,2.5,8.1,2.6,11.6c0,2-0.2,4.3-0.6,6.8s-1.4,5.1-2.8,7.8c-1.2,2.1-2.6,4-4.4,5.6
	s-4.9,3.7-9.5,6.4l9.1,22.7c-2.6,0.9-5.5,1.8-8.7,2.7s-6.3,1.5-9.3,1.8c1.4,1.8,2.7,3.2,4.1,4.1c1.4,0.9,2.5,1.6,3.2,1.9
	c1.2,0.7,3.6,1,7.1,1c3.2-0.5,6.3-0.9,9.5-1.4c3.2-0.4,6.4-0.9,9.6-1.4c1.6,0.2,3.2,0.2,4.8,0.2c1.6-0.1,3.3,0,5,0.1
	c3.7,0.4,7.4,1.3,10.9,2.9c1,0.5,2,1,2.8,1.5c0.9,0.5,1.8,1.3,2.8,2.5l-8.6,14c-1-1-2.5-1.9-4.4-2.4c-1.9-0.6-3.4-0.8-4.6-0.8
	c-0.8,0-1.6-0.1-2.3-0.2c-0.8-0.1-1.7-0.1-2.7,0l-24.6,3.4c-3.5,0.5-6.8,0.3-9.8-0.7s-5.5-2.3-7.4-4c-1.9-1.6-3.5-2.9-4.6-4.1
	C90.3,155,89.4,152.7,88.6,149.4"/>
<path class="st1" d="M85.4,84v7.5c0,2.2,1.1,3.2,3.2,3.2c2.2,0,3.2-1.1,3.2-3.2v-7.6h7.9c2,0,3.1-1,3.1-3.2c0-2.1-1-3.2-3.1-3.2
	h-7.9v-7.9c0-2.2-1.1-3.2-3.2-3.2c-2.2,0-3.2,1.1-3.2,3.2v7.9h-7.7c-2.1,0-3.1,1-3.1,3.2c0,2.1,1,3.2,3.1,3.2L85.4,84 M112,132.7
	l-3.7-9c-6-1.3-12.5-1.9-19.7-1.9c-7.1,0-13.6,0.6-19.5,1.9l-3.7,8.9c7.3-1.8,15-2.7,23.2-2.7C96.7,129.9,104.5,130.8,112,132.7
	 M104.6,114.6l-2.6-6.2V106c-4.4-0.6-8.9-1-13.4-1c-4.4,0-8.9,0.3-13.4,1l-0.1,2.4l-2.4,6.2c5-0.9,10.2-1.3,15.8-1.3
	C94.2,113.2,99.6,113.7,104.6,114.6 M101.5,147.8c-2.3-1.8-4.7-4.6-7.1-8.4h-2.8c0,2.9,0.7,5.7,2,8.4H101.5 M83.4,147.8
	c1.4-2.9,2-5.7,2-8.4h-2.8c-2.3,3.7-4.6,6.5-7.2,8.4H83.4"/>
</svg>
