<?xml version="1.0" encoding="utf-8"?>
<!-- Generator: Adobe Illustrator 23.0.1, SVG Export Plug-In . SVG Version: 6.00 Build 0)  -->
<svg version="1.1" id="Calque_1" shape-rendering="geometricPrecision" image-rendering="optimizeQuality"
	 xmlns="http://www.w3.org/2000/svg" xmlns:xlink="http://www.w3.org/1999/xlink" x="0px" y="0px" viewBox="0 0 177.2 177.2"
	 style="enable-background:new 0 0 177.2 177.2;" xml:space="preserve">
<style type="text/css">
	.st0{fill-rule:evenodd;clip-rule:evenodd;fill:#1F1A17;}
	.st1{fill-rule:evenodd;clip-rule:evenodd;fill:#FFFFFF;}
</style>
<g>
	<path class="st0" d="M91.5,42.6h-6.2V31.1H78c-2,0-3-1-3-2.9v-0.1c0-1.9,1-2.9,3-2.9h7.3v-7.5c0-2.1,1-3.1,3.2-3.1
		c2,0,3.1,1,3.1,3.1v7.5h7.6c1.9,0,2.9,1,2.9,2.9v0.1c0,1.9-1,2.9-2.9,2.9l-7.5,0.1L91.5,42.6"/>
	<path class="st0" d="M39.1,133.7l-2.9-16.4c-0.1,0-0.1-0.1-0.3-0.4c-0.3-0.4-1.1-1-2.5-1.6c-1.4-0.7-3-1.8-4.8-3.5
		c-2.6-2.2-4.6-3.9-6-5.3c-1.4-1.3-2.7-2.8-3.9-4.4c-3.6-4.9-5.6-10.9-6-17.9c-0.6-6.7,2.1-13.4,8.2-20.1s14.3-9.8,24.7-9.4
		C49.5,55,54,56,59.2,57.6c1.7,0.7,3.5,1.4,5.3,2c1.8,0.7,3.5,1.4,5.3,2.1c0.9,0.5,1.8,1,2.5,1.4c-0.3-1.2-0.5-2.5-0.5-3.7
		c0-4.6,1.6-8.5,4.9-11.7c3.2-3.2,7.2-4.9,11.7-4.9c4.6,0,8.5,1.7,11.7,4.9s4.8,7.2,4.8,11.6c0,0.9-0.1,2.2-0.4,3.7
		c0.8-0.5,1.6-1,2.4-1.3c2.7-1.2,6.2-2.6,10.7-4.1c5-1.7,9.6-2.7,13.6-2.9c10.4-0.5,18.6,2.7,24.6,9.4c5.9,6.7,8.7,13.4,8.2,20.1
		c-0.5,7-2.5,12.9-6.1,17.9c-1.2,1.6-2.5,3.1-4,4.4c-1.4,1.4-3.4,3.1-5.9,5.2c-1.9,1.7-3.6,2.8-4.9,3.5c-1.4,0.7-2.1,1.2-2.4,1.6
		c-0.1,0.1-0.1,0.2-0.2,0.3c-0.1,0.1-0.1,0.1-0.1,0.2l-2.8,16.5l5.8,21.7c-2.9,2.6-9.5,4.8-19.7,6.5s-22,2.6-35.3,2.6
		c-13.6,0-25.6-0.9-35.9-2.7s-16.8-4.1-19.4-6.7L39.1,133.7"/>
</g>
<path class="st1" d="M88.4,73.3c-0.1-0.6-0.3-1.1-0.5-1.5c-0.3-1.2-0.6-2-0.9-2.6c-0.2-0.4-0.4-0.9-0.7-1.5c-0.3-0.6-0.6-1.3-0.9-2
	c-0.2-0.4-0.4-1-0.7-1.6c-0.2-0.7-0.5-1.3-0.7-1.9c-0.1-0.5-0.2-1.1-0.2-1.7c0-3.1,1.5-4.6,4.5-4.6c3.1,0,4.6,1.5,4.6,4.6
	c0,0.8-0.1,1.3-0.3,1.7c-0.8,2.2-1.3,3.4-1.3,3.6c-0.9,1.8-1.4,2.9-1.7,3.4c-0.4,1-0.7,1.8-0.8,2.6c-0.2,0.4-0.3,0.7-0.4,0.9
	C88.5,72.9,88.5,73.1,88.4,73.3 M78.6,103.6c-7.3,0.1-14,0.5-20.1,1.1s-10.7,1.6-14.1,2.7c-1.7-2.2-3.8-4.4-6.1-6.6
	s-4.4-4.3-6.1-6.2c-2.9-3-4.4-6.3-4.4-9.8c0-4.4,0.7-7.6,2.2-9.7c1.6-2.4,4-4.1,7.3-5.3c3.3-1.1,6.6-1.7,9.9-1.7
	c4.2,0,8.2,0.9,12.1,2.8c3.8,2,6.3,3.6,7.6,4.7c4,4.1,7.1,8.4,9.3,13.2c0.8,1.8,1.3,4.2,1.7,7.3C78.3,99.5,78.5,101.9,78.6,103.6
	 M88.4,88.3c0.4-1.7,0.8-2.8,1-3.4c0.6-2.3,1.3-4.2,2-5.8c0.3-1,0.8-2.1,1.5-3.5c0.7-1.3,1.4-2.8,2.2-4.5c0.5-1,1-2.2,1.5-3.7
	c0.5-1.4,1.1-2.8,1.6-4.3c0.5-1.2,0.7-2.4,0.7-3.8c0-2.9-1-5.3-3.1-7.3c-2-2-4.5-3.1-7.5-3.1c-7,0-10.5,3.5-10.5,10.5
	c0,1.4,0.2,2.6,0.7,3.8c1.3,3.8,2.3,6.4,3,7.9c0.8,1.7,1.5,3.2,2.1,4.5s1.2,2.5,1.7,3.5c0.8,1.9,1.4,3.9,1.9,5.8
	C87.5,85.3,87.8,86.4,88.4,88.3 M85.3,110.3c0-2.3-0.1-5.6-0.2-9.7s-0.6-7.6-1.3-10.4c-2.4-7.8-6-14.2-10.9-19
	c-2.5-2.5-6.4-4.8-11.6-6.9c-6-2.3-11.6-3.5-17-3.5c-9.2,0-16.1,3.3-20.6,9.9c-2.5,3.5-3.8,7.9-3.8,13.2c0,5.8,1.4,10.5,4.2,14.2
	c1.5,2.1,4.3,4.7,8.5,7.8c4.1,3.1,7.7,6,10.5,8.6c5.1-1.1,10.9-2.1,17.3-2.9C66.8,110.9,75.1,110.5,85.3,110.3 M134.1,151.9
	l-2.6-10.4c-11.4-2.6-25.8-3.9-43.1-3.9c-17.1,0-31.4,1.3-42.9,3.9L42.7,152c11.1-3.4,26.4-5.1,45.8-5.1c9.3,0,18,0.5,25.9,1.4
	C122.4,149.3,129,150.5,134.1,151.9 M131.8,125.6c-10.8-3-25.1-4.5-43.1-4.5c-18.1,0-32.6,1.5-43.6,4.6l1.3,8.9
	c11.1-2.9,25.1-4.3,42.3-4.3c17,0,30.9,1.4,41.6,4.2L131.8,125.6 M91.6,110.4c10.1,0.2,18.4,0.7,24.8,1.5c6.4,0.8,12.2,1.8,17.4,2.9
	c3.2-3.2,6.8-6.2,10.7-9.1s6.7-5.3,8.3-7.4c2.8-3.8,4.2-8.6,4.2-14.2c0-5.2-1.3-9.6-3.8-13.1c-4.5-6.6-11.4-9.9-20.6-9.9
	c-5.4,0-11,1.2-16.9,3.5c-5.3,2.1-9.2,4.4-11.6,6.8c-5,4.8-8.6,11.2-10.9,19c-0.9,2.7-1.4,6.1-1.4,10.3
	C91.6,104.9,91.5,108.2,91.6,110.4 M98,103.6c0-1.7,0.2-4.1,0.6-7.3c0.4-3.1,1-5.6,1.8-7.3c2.2-4.7,5.3-9.1,9.3-13.2
	c1.2-1.2,3.7-2.8,7.6-4.7c3.8-1.9,7.9-2.8,12.2-2.8c3.3,0,6.5,0.6,9.8,1.7c3.2,1.1,5.7,2.9,7.3,5.3c1.5,2,2.2,5.2,2.2,9.7
	c0,3.5-1.4,6.8-4.3,9.8c-1.9,1.9-3.9,3.9-6.1,5.9c-2.2,1.9-4.3,4.3-6.2,6.9c-3.4-1.2-8.1-2.1-14.2-2.7
	C111.9,104.1,105.3,103.7,98,103.6"/>
</svg>
