<?xml version="1.0" encoding="utf-8"?>
<!-- Generator: Adobe Illustrator 23.0.1, SVG Export Plug-In . SVG Version: 6.00 Build 0)  -->
<svg version="1.1" id="Calque_1" shape-rendering="geometricPrecision" image-rendering="optimizeQuality"
	 xmlns="http://www.w3.org/2000/svg" xmlns:xlink="http://www.w3.org/1999/xlink" x="0px" y="0px" viewBox="0 0 177.2 177.2"
	 style="enable-background:new 0 0 177.2 177.2;" xml:space="preserve">
<style type="text/css">
	.st0{fill-rule:evenodd;clip-rule:evenodd;fill:#1F1A17;}
	.st1{fill:#FFFFFF;stroke:#000000;stroke-miterlimit:10;}
</style>
<path class="st0" d="M92.8,33.3c9.2,0.6,17.7,3,25.6,7.2c7.8,4.1,14.5,9.5,20,16c3.9,4.6,7.5,10.1,10.9,16.5
	c3.5,6.4,6.2,13.3,8.2,20.5c2.3,8.4,3.8,17.2,4.4,26.4c0.6,9.2,0.9,17.8,0.9,25.6v19.1c0,0-4.6,0-13.7,0c-9.1,0-20.9,0-35.5,0h-59
	c-0.5,0-0.8-1.4-0.8-4.3c0-2.9,0.2-5.2,0.6-7c0.2-1.4,0.8-3.4,1.7-6c0.9-2.6,2.3-5.7,4.4-9.4c0.9-1.9,3.2-4.6,6.7-8.2
	c3.5-3.6,7.6-7.8,12.2-12.5c2.6-2.7,4.7-6.1,6.2-10.2c1.5-4.1,2.1-7.8,1.9-11.2c-2.2,1.8-4.5,3.2-7.1,4.3
	c-12.4,4.4-21.4,10.9-27,19.3c-0.4,0.5-1.7,2.9-4,7.2c-1.2,2.2-2.2,3.7-3,4.6c-1.1,1.1-2.7,1.7-4.8,1.9c-3.3,0.1-5.8-1.4-7.7-4.8
	c-2.5,0.7-4.6,1-6.6,0.9c-3.3-1.2-5.6-2.6-7.1-4c-3-3-4.9-6-5.9-9c-0.9-3-1.4-6.2-1.4-9.7c0-4.9,3-11.4,9.1-19.5
	c7.2-9.3,10.9-16.4,11.4-21.3c0-2.1,0.2-4.5,0.6-7.1c0.4-1.8,1.1-3.6,2.2-5.3c0.8-1.2,1.3-2,1.5-2.4c0.3-0.5,0.8-1.1,1.5-2
	c0.5-0.7,1-1.3,1.3-1.6c0.3-0.4,0.8-0.9,1.3-1.6c0.6-0.8,1.4-1.6,2.5-2.6c-3.1-8.6-4.4-17.4-3.8-26.4C52.4,21,62.2,27.5,70.1,36.4
	c1.9-6.6,5.8-12,11.4-16.1C86.3,23.6,90,28,92.8,33.3"/>
<path class="st1" d="M55.6,63c1.3-0.7,1.9-1,1.9-1c1.8-0.7,2.3-2,1.7-3.9c-0.7-1.7-2-2.3-4.1-1.7c-6.9,2.5-11.7,7.2-14.3,13.9
	c-0.4,1.9,0.3,3.2,2.1,4c1.8,0.6,3.1-0.1,3.7-1.9c0.5-1,0.8-1.7,1-1.9c0.7,0.5,1.5,0.9,2.6,1c3.6,0.6,5.7-1,6.2-4.7
	C56.6,65.4,56.3,64.2,55.6,63 M41,122.4c0.2-0.5,0.6-1.3,1.1-2.4c1-2.5,1.5-3.9,1.5-4.4c-0.1-1.6-1-2.5-2.6-2.5
	c-1.2,0-2.5,1.7-4.1,5c-0.2,0.5-0.6,0.9-1,1.2c-1.6,1.7-1.4,3,0.7,4.1C38.5,124.7,39.9,124.3,41,122.4 M92.8,89.8
	c4.1-5.4,6.1-11.4,6.1-18c-0.2-1.9-1.4-2.9-3.3-2.9c-2.7,0-3.7,1-3.2,3c0.2,3.2-0.1,5.9-1,8c-1.4,3.3-2.8,5.8-4.5,7.5
	c-0.9,1.8-0.4,3.1,1.6,3.9C90.4,92.1,91.9,91.6,92.8,89.8 M69.9,46.9c-0.3-2.1-0.2-4.4,0.2-6.8c-3.5,0.7-6.8,2.3-9.9,4.9
	c-1.9,1-2.3,2.4-1.3,4.1c1,1.8,2.4,2.1,4.1,0.9c1.2-0.7,2.4-1.3,3.4-1.8C67.4,47.6,68.5,47.2,69.9,46.9 M152.3,158.4
	c-0.1,0,0-1.6,0.1-4.8c0.5-11,0.3-22,0.3-33.1c-0.1-7.8-1.1-15.6-3.2-23.4c-3-11.7-7.5-23-14.4-32.9c-9.3-13.6-24.1-21.4-40-24.7
	c0.4,2.7,0.1,5.5,0.3,8.2c5.7,1.9,11,4.3,16.1,7.2c15,9,22.7,25.8,25.5,42.3c4.5,21.8,1.6,41,2.9,61.3L152.3,158.4 M33.4,106.8
	c1.7-1.2,1.9-2.6,0.5-4.2c-1.4-1.4-2.9-1.5-4.6-0.4c-3.6,2.3-5.5,5.4-5.7,9.2c0.1,1.9,1.2,2.8,3.5,2.7c2.1-0.2,3.1-1.3,3.1-3.3
	C30.6,109,31.7,107.7,33.4,106.8"/>
</svg>
