<?xml version="1.0" encoding="utf-8"?>
<!-- Generator: Adobe Illustrator 23.0.1, SVG Export Plug-In . SVG Version: 6.00 Build 0)  -->
<svg version="1.1" id="Calque_1" shape-rendering="geometricPrecision" image-rendering="optimizeQuality"
	 xmlns="http://www.w3.org/2000/svg" xmlns:xlink="http://www.w3.org/1999/xlink" x="0px" y="0px" viewBox="0 0 177.2 177.2"
	 style="enable-background:new 0 0 177.2 177.2;" xml:space="preserve">
<style type="text/css">
	.st0{fill-rule:evenodd;clip-rule:evenodd;fill:#1F1A17;}
	.st1{fill-rule:evenodd;clip-rule:evenodd;fill:#FFFFFF;}
</style>
<g>
	<path class="st0" d="M88.4,38.1c-3.3,0-6.2-1.2-8.5-3.5s-3.5-5.2-3.5-8.5s1.1-6.1,3.5-8.5c2.3-2.3,5.2-3.5,8.5-3.5s6.1,1.2,8.5,3.5
		s3.5,5.2,3.5,8.5s-1.2,6.2-3.5,8.5C94.5,36.9,91.7,38.1,88.4,38.1"/>
	<path class="st0" d="M142.6,155.7c-2.9,2.5-9.3,4.6-19.4,6.3c-10,1.7-21.6,2.6-34.6,2.6c-13.3,0-25-0.9-35.1-2.6
		c-10.1-1.8-16.4-4-19.1-6.6l5.5-21.1l-2.5-13.8L29.8,107l-7.5-54.7l4.3-1.7l24.1,40.6l0.5-48.3l6-1l18.4,48.6l9.8-52.3h6.1
		l9.8,52.1l18.2-48.4l6.1,1l0.5,48.3l24.2-40.7l4.1,1.9l-7.3,54.4l-7.8,13.4l-2.5,14L142.6,155.7"/>
	<path class="st0" d="M51.5,42.5c-3.4,0-6.2-1.1-8.6-3.5s-3.5-5.2-3.5-8.5s1.2-6.1,3.5-8.4s5.2-3.5,8.6-3.5c3.3,0,6.1,1.2,8.4,3.5
		c2.3,2.3,3.5,5.2,3.5,8.4c0,3.3-1.2,6.2-3.5,8.5C57.6,41.3,54.8,42.5,51.5,42.5"/>
	<path class="st0" d="M125.3,42.5c-3.3,0-6.2-1.1-8.5-3.5c-2.3-2.3-3.5-5.2-3.5-8.5s1.2-6.1,3.5-8.4s5.1-3.5,8.5-3.5
		c3.4,0,6.2,1.2,8.6,3.5c2.3,2.3,3.5,5.2,3.5,8.4c0,3.3-1.2,6.2-3.5,8.5C131.5,41.3,128.7,42.5,125.3,42.5"/>
	<path class="st0" d="M19.1,52.2c-3.3,0-6.2-1.2-8.5-3.5s-3.5-5.1-3.5-8.5c0-3.3,1.2-6.1,3.5-8.5s5.1-3.6,8.5-3.6s6.2,1.2,8.6,3.6
		c2.3,2.4,3.5,5.2,3.5,8.5c0,3.4-1.2,6.2-3.5,8.5C25.3,51,22.5,52.2,19.1,52.2"/>
	<path class="st0" d="M157.8,52.2c-3.3,0-6.2-1.2-8.5-3.5s-3.5-5.1-3.5-8.5c0-3.3,1.2-6.1,3.5-8.5s5.2-3.6,8.5-3.6s6.1,1.2,8.5,3.6
		c2.3,2.4,3.5,5.2,3.5,8.5c0,3.4-1.2,6.2-3.5,8.5C163.9,51,161.1,52.2,157.8,52.2"/>
</g>
<path class="st1" d="M131.8,126.6c-10.8-3-25.1-4.5-43.1-4.5c-18.1,0-32.6,1.5-43.6,4.6l1.3,8.9c11.1-2.9,25.1-4.3,42.3-4.3
	c17,0,30.9,1.4,41.6,4.2L131.8,126.6 M138,110.9c-4.9-1.8-11.7-3.2-20.5-4.4s-18.5-1.7-29.2-1.7c-10.4,0-20,0.5-28.7,1.6
	s-15.5,2.5-20.5,4.3l4.4,8c4.9-1.4,11.3-2.5,19.2-3.2c7.8-0.6,16.4-1,25.7-1s17.9,0.3,25.8,1s14.3,1.7,19.3,3.2L138,110.9
	 M134.1,152.9l-2.6-10.4c-11.4-2.6-25.8-3.9-43.1-3.9c-17.1,0-31.4,1.3-42.9,3.9L42.7,153c11.1-3.4,26.4-5.1,45.8-5.1
	c9.3,0,18,0.5,25.9,1.4C122.4,150.2,128.9,151.4,134.1,152.9"/>
</svg>
