<?xml version="1.0" encoding="utf-8"?>
<!-- Generator: Adobe Illustrator 23.0.1, SVG Export Plug-In . SVG Version: 6.00 Build 0)  -->
<svg version="1.1" id="Calque_1" image-rendering="optimizeQuality" shape-rendering="geometricPrecision"
	 xmlns="http://www.w3.org/2000/svg" xmlns:xlink="http://www.w3.org/1999/xlink" x="0px" y="0px" viewBox="0 0 177.2 177.2"
	 style="enable-background:new 0 0 177.2 177.2;" xml:space="preserve">
<style type="text/css">
	.st0{fill-rule:evenodd;clip-rule:evenodd;fill:#1F1A17;}
	.st1{fill-rule:evenodd;clip-rule:evenodd;fill:#FFFFFF;}
</style>
<path class="st0" d="M90.2,148.9c-0.8,3.3-1.8,5.6-3,6.9c-1.2,1.3-2.7,2.6-4.6,4.1c-2.1,1.5-4.6,2.7-7.5,3.7s-6.1,1.3-9.6,0.8
	l-24.7-3.4c-1-0.1-1.9-0.1-2.7,0c-0.8,0.1-1.5,0.2-2.3,0.2c-1.2,0-2.8,0.3-4.7,0.8c-1.9,0.5-3.4,1.4-4.4,2.4l-8.5-14
	c1-1.2,2-2,2.8-2.5c0.8-0.5,1.8-1,2.9-1.5c3.4-1.6,7-2.6,10.9-2.9c1.7-0.1,3.3-0.1,4.8-0.1c1.6,0.1,3.2,0,5-0.2
	c3.2,0.5,6.3,1,9.5,1.4c3.2,0.4,6.4,0.9,9.6,1.4c3.5,0,5.9-0.4,7.1-1c0.7-0.4,1.7-1,3.1-1.9s2.8-2.3,4.2-4.1
	c-3.1-0.3-6.3-0.9-9.5-1.8c-3.2-0.8-6.1-1.7-8.5-2.7l9.1-22.7c-4.6-2.6-7.8-4.7-9.6-6.4c-1.8-1.6-3.2-3.5-4.3-5.6
	c-1.5-2.7-2.5-5.3-2.9-7.8c-0.5-2.5-0.6-4.8-0.6-6.8c0.1-3.5,0.9-7.4,2.5-11.6c1.6-4.2,4.6-8,9.1-11.4c3.7-2.8,7.3-5.7,10.8-8.7
	c3.5-3,7-6.5,10.4-10.5c-4.3-2.2-6.5-5.8-6.5-10.6c0-3.3,1.1-6.1,3.5-8.5c2.3-2.3,5.2-3.5,8.5-3.5c3.3,0,6.1,1.2,8.4,3.5
	c2.3,2.4,3.5,5.2,3.5,8.5c0,4.8-2.2,8.3-6.5,10.6c3.4,4,6.8,7.5,10.3,10.5c3.5,3,7.2,5.9,10.9,8.7c4.4,3.3,7.4,7.2,8.9,11.4
	c1.6,4.3,2.5,8.1,2.6,11.6c0,2-0.2,4.3-0.6,6.8c-0.4,2.5-1.4,5.1-2.8,7.8c-1.2,2.1-2.6,4-4.4,5.6c-1.8,1.6-4.9,3.7-9.5,6.4l9.1,22.7
	c-2.6,0.9-5.5,1.8-8.7,2.7c-3.2,0.9-6.3,1.5-9.3,1.8c1.4,1.8,2.7,3.2,4.1,4.1c1.4,0.9,2.5,1.6,3.2,1.9c1.2,0.7,3.6,1,7.1,1
	c3.2-0.5,6.3-0.9,9.5-1.4c3.2-0.4,6.4-0.9,9.6-1.4c1.6,0.2,3.2,0.2,4.8,0.2s3.3,0,5,0.1c3.7,0.4,7.4,1.3,10.9,2.9c1,0.5,2,1,2.8,1.5
	c0.9,0.5,1.8,1.3,2.8,2.5l-8.6,14c-1-1-2.5-1.9-4.4-2.4c-1.9-0.6-3.4-0.8-4.6-0.8c-0.8,0-1.6-0.1-2.3-0.2s-1.7-0.1-2.7,0l-24.6,3.4
	c-3.5,0.5-6.8,0.3-9.8-0.7c-3-1-5.5-2.3-7.4-4c-1.9-1.6-3.5-2.9-4.6-4.1C91.9,154.4,90.9,152.2,90.2,148.9"/>
<path class="st1" d="M93.3,138.9c0,3.9,0.9,7.2,2.7,9.9c1.8,2.7,3.7,4.9,5.8,6.4c3.2,2.4,7.9,3.5,14.1,3.5c1.5,0,4.5-0.3,9-1
	c3.6-0.6,6.6-1,8.8-1.3c2.2-0.3,3.7-0.5,4.5-0.7c2.2-0.3,4.6-0.2,7,0.2c0.9,0.2,2,0.5,3.1,0.7c1.1,0.2,2.1,0.7,2.8,1.4l4.2-6.8
	c-2.4-1.2-5-2.1-7.7-2.6c-4.4-0.8-8.3-0.9-11.7-0.5c-1,0.1-2.3,0.4-3.9,0.9c-1.6,0.5-3.8,0.9-6.5,1.3c-5.9,1-9.1,1.4-9.4,1.4
	c-2.3,0-4.3-0.3-6-0.9c-1.7-0.6-3.2-1.2-4.6-1.9c-3.1-1.4-6.3-4.7-9.5-10L93.3,138.9 M87,138.9h-2.8c-3.3,5.3-6.4,8.6-9.4,10
	c-1.4,0.7-2.9,1.3-4.6,1.9c-1.7,0.6-3.7,0.9-5.9,0.9c-0.4,0-3.5-0.5-9.4-1.4c-2.8-0.4-5-0.8-6.7-1.3c-1.7-0.4-2.9-0.8-3.9-0.9
	c-3.4-0.4-7.2-0.2-11.7,0.5c-2.7,0.5-5.2,1.3-7.6,2.6l4.2,6.8c0.7-0.7,1.6-1.1,2.8-1.4c1.1-0.2,2.2-0.4,3.1-0.7
	c2.5-0.4,4.8-0.5,7-0.2c0.8,0.2,2.3,0.4,4.5,0.7c2.2,0.3,5.2,0.7,8.9,1.3c4.4,0.7,7.4,1,9,1c6.2,0,10.9-1.2,14.1-3.5
	c2-1.5,3.9-3.6,5.7-6.4C86.1,146.1,87,142.8,87,138.9 M90.2,105.8c5.7,0,11.1,0.5,16.3,1.3c5.7-2,9.9-5.3,12.5-9.6
	c2.2-3.7,3.3-7.9,3.3-12.4c0-2.7-0.7-5.7-2-8.9c-1.4-3.2-3.5-6.2-6.6-8.8c-3.5-2.9-7.2-6-11.3-9.5c-4.1-3.4-8.2-7.4-12.2-12
	c-4.1,4.6-8.2,8.6-12.3,12c-4.1,3.4-7.9,6.6-11.3,9.5C63.5,70,61.3,73,60,76.2c-1.3,3.3-2,6.2-2,8.9c0,4.5,1.1,8.6,3.2,12.4
	c2.5,4.3,6.7,7.5,12.6,9.6C79,106.2,84.4,105.8,90.2,105.8 M90.2,121.8c6.9,0,13.4,0.7,19.8,2l-4.2-10.8c-5.2-0.8-10.4-1.2-15.6-1.2
	c-5.3,0-10.6,0.4-15.6,1.2l-4.2,10.8C76.6,122.5,83.2,121.8,90.2,121.8 M90.2,38.4c4,0,6-2,6-6s-2-6-6-6s-6,2-6,6
	C84.2,36.4,86.2,38.4,90.2,38.4 M90.2,134.1c4,0,7.9-0.3,11.6-1c3.8-0.7,7.4-1.5,10.9-2.4c-6.9-1.8-14.4-2.7-22.6-2.7
	c-8.3,0-15.8,0.9-22.6,2.7c3.4,0.9,7,1.7,10.8,2.4C82.2,133.7,86.1,134.1,90.2,134.1 M87,83.3l-7.3-0.1c-2,0-3-1-3-3c0-2,1-3,3-3H87
	v-7.6c0-2,1-3.1,3.2-3.1c2,0,3.1,1,3.1,3.1v7.6h7.6c1.9,0,2.9,1,2.9,3c0,2-1,3-2.9,3h-7.6v7.2c0,2.1-1,3.2-3.1,3.2
	c-2.1,0-3.2-1-3.2-3.2V83.3"/>
</svg>
