<?xml version="1.0" encoding="utf-8"?>
<!-- Generator: Adobe Illustrator 23.0.1, SVG Export Plug-In . SVG Version: 6.00 Build 0)  -->
<svg version="1.1" id="Calque_1" image-rendering="optimizeQuality" shape-rendering="geometricPrecision"
	 xmlns="http://www.w3.org/2000/svg" xmlns:xlink="http://www.w3.org/1999/xlink" x="0px" y="0px" viewBox="0 0 177.2 177.2"
	 style="enable-background:new 0 0 177.2 177.2;" xml:space="preserve">
<style type="text/css">
	.st0{fill-rule:evenodd;clip-rule:evenodd;fill:#1F1A17;}
	.st1{fill-rule:evenodd;clip-rule:evenodd;fill:#FFFFFF;}
</style>
<g>
	<path class="st0" d="M91.5,42.6h-6.2V31.1h-7.3c-2,0-3-1-3-2.9v-0.1c0-1.9,1-2.9,3-2.9h7.3v-7.5c0-2.1,1-3.1,3.2-3.1
		c2,0,3.1,1,3.1,3.1v7.5h7.6c1.9,0,2.9,1,2.9,2.9v0.1c0,1.9-1,2.9-2.9,2.9l-7.5,0.1L91.5,42.6"/>
	<path class="st0" d="M39.1,133.7l-2.9-16.4c-0.1,0-0.1-0.1-0.3-0.4c-0.3-0.4-1.1-1-2.5-1.6c-1.4-0.7-3-1.8-4.8-3.5
		c-2.6-2.2-4.6-3.9-6-5.3c-1.4-1.3-2.7-2.8-3.9-4.4c-3.6-4.9-5.6-10.9-6-17.9c-0.6-6.7,2.1-13.4,8.2-20.1c6.1-6.7,14.3-9.8,24.7-9.4
		C49.5,55,54,56,59.2,57.6c1.7,0.7,3.5,1.4,5.3,2c1.8,0.7,3.5,1.4,5.3,2.1c0.9,0.5,1.8,1,2.5,1.4c-0.3-1.2-0.5-2.5-0.5-3.7
		c0-4.6,1.6-8.5,4.9-11.7c3.2-3.2,7.2-4.9,11.7-4.9c4.6,0,8.5,1.7,11.7,4.9c3.2,3.2,4.8,7.2,4.8,11.6c0,0.9-0.1,2.2-0.4,3.7
		c0.8-0.5,1.6-1,2.4-1.3c2.7-1.2,6.2-2.6,10.7-4.1c5-1.7,9.6-2.7,13.6-2.9c10.4-0.5,18.6,2.7,24.6,9.4c5.9,6.7,8.7,13.4,8.2,20.1
		c-0.5,7-2.5,12.9-6.1,17.9c-1.2,1.6-2.5,3.1-4,4.4c-1.4,1.4-3.4,3.1-5.9,5.2c-1.9,1.7-3.6,2.8-4.9,3.5c-1.4,0.7-2.1,1.2-2.4,1.6
		c-0.1,0.1-0.1,0.2-0.2,0.3c-0.1,0.1-0.1,0.1-0.1,0.2l-2.8,16.5l5.8,21.7c-2.9,2.6-9.5,4.8-19.7,6.5c-10.2,1.7-22,2.6-35.3,2.6
		c-13.6,0-25.6-0.9-35.9-2.7c-10.3-1.8-16.8-4.1-19.4-6.7L39.1,133.7"/>
</g>
<path class="st1" d="M91.4,104.6c10.1,0.1,19.3,0.7,27.7,1.8c8.4,1.1,15,2.5,19.7,4.1c2.2-1.7,4.6-3.7,7.3-5.9
	c2.6-2.1,4.8-4.3,6.6-6.5c2.8-3.6,4.2-8.3,4.2-14.2c0-5.3-1.3-9.7-3.8-13.2c-4.5-6.6-11.4-9.8-20.6-9.8c-5.5,0-11.2,1.1-17,3.4
	c-5.1,2.1-9,4.4-11.6,6.9c-4.9,4.9-8.6,11.3-10.9,19c-0.8,2.8-1.3,5.3-1.4,7.5C91.5,100,91.4,102.3,91.4,104.6 M44.5,128.4
	c11.1-2.8,25.9-4.2,44.3-4.2c18,0,32.6,1.4,43.7,4.1l2.2-12.9c-11.8-3.1-27.2-4.6-46.2-4.6c-19.2,0-34.5,1.6-46.1,4.7L44.5,128.4
	 M134.1,144l-2.6-10.1c-11.6-2.6-26-3.9-43.1-3.9c-17,0-31.4,1.3-43,3.9l-2.8,10.2c11.2-3.3,26.5-4.9,45.9-4.9
	C107.8,139.2,123,140.8,134.1,144 M136.4,152.3c-11.3-4.6-27.2-6.9-47.6-6.9c-21.2,0-37.3,2.3-48.2,7.1c10.3,4.1,26.3,6.2,47.9,6.2
	c10.3,0,19.7-0.6,28.2-1.7C125.2,155.8,131.7,154.2,136.4,152.3 M85.3,104.6c0-2.3-0.1-4.6-0.2-6.8c-0.1-2.3-0.6-4.8-1.3-7.5
	c-2.4-7.8-6-14.2-10.9-19c-2.5-2.5-6.4-4.8-11.6-6.9c-6-2.3-11.6-3.5-17-3.5c-9.2,0-16.1,3.3-20.6,9.9c-2.5,3.5-3.8,7.9-3.8,13.2
	c0,5.8,1.4,10.5,4.2,14.2c1.7,2.2,3.9,4.4,6.5,6.5c2.6,2.2,5.1,4.1,7.4,5.9C48.3,106.9,64,104.9,85.3,104.6 M88.4,88.3
	c0.4-1.7,0.8-2.8,1-3.4c0.6-2.3,1.3-4.2,2-5.8c0.3-1,0.8-2.1,1.5-3.5c0.7-1.3,1.4-2.8,2.2-4.5c0.5-1,1-2.2,1.5-3.7
	c0.5-1.4,1.1-2.8,1.6-4.3c0.5-1.2,0.7-2.4,0.7-3.8c0-2.9-1-5.3-3.1-7.3c-2-2-4.5-3.1-7.5-3.1c-7,0-10.5,3.5-10.5,10.5
	c0,1.4,0.2,2.6,0.7,3.8c1.3,3.8,2.3,6.4,3,7.9c0.8,1.7,1.5,3.2,2.1,4.5c0.6,1.3,1.2,2.5,1.7,3.5c0.8,1.9,1.4,3.9,1.9,5.8
	C87.5,85.3,87.8,86.4,88.4,88.3"/>
</svg>
