<?xml version="1.0" encoding="utf-8"?>
<!-- Generator: Adobe Illustrator 23.0.1, SVG Export Plug-In . SVG Version: 6.00 Build 0)  -->
<svg version="1.1" id="Calque_1" image-rendering="optimizeQuality" shape-rendering="geometricPrecision"
	 xmlns="http://www.w3.org/2000/svg" xmlns:xlink="http://www.w3.org/1999/xlink" x="0px" y="0px" viewBox="0 0 177.2 177.2"
	 style="enable-background:new 0 0 177.2 177.2;" xml:space="preserve">
<style type="text/css">
	.st0{fill-rule:evenodd;clip-rule:evenodd;fill:#1F1A17;}
	.st1{fill-rule:evenodd;clip-rule:evenodd;fill:#FFFFFF;}
</style>
<path class="st0" d="M92.8,33.3c9.2,0.6,17.7,3,25.6,7.2c7.8,4.1,14.5,9.5,20,16c3.9,4.6,7.5,10.1,10.9,16.5
	c3.5,6.4,6.2,13.3,8.2,20.5c2.3,8.4,3.8,17.2,4.4,26.4c0.6,9.2,0.9,17.8,0.9,25.6v19.1c0,0-4.6,0-13.7,0c-9.1,0-20.9,0-35.5,0h-59
	c-0.5,0-0.8-1.4-0.8-4.3c0-2.9,0.2-5.2,0.6-7c0.2-1.4,0.8-3.4,1.7-6c0.9-2.6,2.3-5.7,4.4-9.4c0.9-1.9,3.2-4.6,6.7-8.2
	c3.5-3.6,7.6-7.8,12.2-12.5c2.6-2.7,4.7-6.1,6.2-10.2c1.5-4.1,2.1-7.8,1.9-11.2c-2.2,1.8-4.5,3.2-7.1,4.3
	c-12.4,4.4-21.4,10.9-27,19.3c-0.4,0.5-1.7,2.9-4,7.2c-1.2,2.2-2.2,3.7-3,4.6c-1.1,1.1-2.7,1.7-4.8,1.9c-3.3,0.1-5.8-1.4-7.7-4.8
	c-2.5,0.7-4.6,1-6.6,0.9c-3.3-1.2-5.6-2.6-7.1-4c-3-3-4.9-6-5.9-9c-0.9-3-1.4-6.2-1.4-9.7c0-4.9,3-11.4,9.1-19.5
	c7.2-9.3,10.9-16.4,11.4-21.3c0-2.1,0.2-4.5,0.6-7.1c0.4-1.8,1.1-3.6,2.2-5.3c0.8-1.2,1.3-2,1.5-2.4c0.3-0.5,0.8-1.1,1.5-2
	c0.5-0.7,1-1.3,1.3-1.6c0.3-0.4,0.8-0.9,1.3-1.6c0.6-0.8,1.4-1.6,2.5-2.6c-3.1-8.6-4.4-17.4-3.8-26.4C52.4,21,62.2,27.5,70.1,36.4
	c1.9-6.6,5.8-12,11.4-16.1C86.3,23.6,90,28,92.8,33.3"/>
<path class="st1" d="M152.3,158.4c-0.1,0,0-1.6,0.1-4.8c0.2-3.2,0.3-6.7,0.3-10.4c0.1-7.3,0.1-14.9,0-22.7
	c-0.1-7.8-1.1-15.6-3.2-23.4c-2-7.5-4.2-13.9-6.6-19.2c-2.4-5.3-5-9.9-7.8-13.7c-4.2-6.3-10-11.7-17.2-16.1
	c-7.3-4.4-14.9-7.3-22.8-8.6c0.5,2.9,0.8,5.7,0.7,8.5c-0.1,2.1-1.1,3.2-3,3.2c-2.2,0-3.1-1-2.9-3.2c0.2-7.7-2.6-14.4-8.2-19.9
	c-4.4,4.7-6.9,10.1-7.2,16.3c-0.1,2.1-1.2,3-3.2,2.7c-1.9-0.1-2.8-1.1-2.8-3.2c0,0,0.1-0.2,0.1-0.7c-2.4,0.8-4.9,1.9-7.6,3.3
	c-1.7,1.2-3.1,0.9-4.1-0.9c-1-1.8-0.6-3.2,1.4-4.1c2.5-1.3,4.4-2.3,5.7-2.9c-5-5.2-10.8-9.3-17.2-12.5c0.7,8.2,2.9,15.8,6.7,23.1
	c1,1.5,0.8,2.8-0.7,4c-1.7,1.3-3,1.1-4.1-0.6c-0.4-0.6-1-1.7-1.7-3.2c-1.2,1.2-2.1,2.2-2.5,2.7c-0.4,0.5-1.1,1.7-2.2,3.5
	c-1,1.8-1.8,3.3-2.3,4.5c-0.5,1.5-0.8,2.6-0.7,3.6c0.1,0.9,0.2,1.9,0.2,3c-0.5,3.5-1.7,6.7-3.6,9.8c-1.9,3-4.2,6.8-7.1,11.2
	c-2.8,4.2-4.9,7.4-6.3,9.5c-1.5,2.1-2.6,4.8-3.3,8.1c-0.5,2-0.5,4.4,0,7.2c0.5,2.8,1.7,5.1,3.4,6.7c2.7,2.7,5.3,4,7.8,3.8
	c0.8,0,1.9-0.3,3.3-1c1.4-0.6,2.4-1.9,3.2-3.7c1.5-3.3,2.8-5,3.8-5c1.4,0,2.3,0.8,2.4,2.5c0,0.4-0.5,1.8-1.4,4.4
	c-0.5,1.2-1.2,2.4-2.1,3.7c-1.1,1.5-1.6,2.2-1.5,1.9c0.9,3.4,2.5,3.9,4.6,1.8c0.6-0.6,1.4-1.9,2.2-3.6c0.8-1.8,2.1-4.1,3.9-7.1
	c2.1-3.5,4.3-6.3,6.6-8.5c2.3-2.2,4.4-3.9,6.2-5.3c1-0.8,2.3-1.7,3.9-2.6c1.5-1,3.6-2,6.2-3.1c2-0.8,4.3-1.8,6.8-3
	c2.5-1.2,4.7-2.7,6.6-4.6c2.7-2.6,4.8-5.9,6.2-9.8c0.8-2.2,1-4.8,0.9-8c-0.5-2,0.5-3,3-3c1.9,0,2.9,1,3.2,2.9
	c0,6.6-1.9,12.6-5.6,18.1c1.2,3.7,1.6,7.9,1,12.3c-0.5,3.6-1.8,7.4-3.7,11.5c-2,4.1-5.9,8.6-11.9,13.6
	c-12.2,10.1-17.9,20.5-17.2,31.1c0,0,5,0,15,0c10,0,19.4,0,28.2,0L152.3,158.4 M33.1,104.9c-1.7,1-2.7,2.5-3.1,4.2
	c0.1,1.9-0.8,3-2.7,3.2c-2.1,0.2-3.1-0.6-3.2-2.6c0.2-3.9,1.9-6.9,5.2-9.2c1.5-1.2,2.9-1.1,4.2,0.3
	C34.8,102.4,34.7,103.8,33.1,104.9 M59.2,63c0.8,1.2,1,2.4,0.9,3.7c-0.6,3.7-2.7,5.3-6.2,4.7c-1-0.2-1.9-0.5-2.6-1
	c-0.2,0.3-0.6,0.9-1,1.9c-0.6,1.9-1.9,2.5-3.7,1.9c-1.8-0.7-2.5-2-2.1-4c2.6-6.8,7.4-11.4,14.3-13.9c2-0.6,3.3,0,4,1.7
	c0.7,1.9,0.2,3.2-1.6,3.9c-0.3,0.2-0.7,0.4-1,0.5C59.8,62.7,59.6,62.8,59.2,63"/>
</svg>
