<?xml version="1.0" encoding="utf-8"?>
<!-- Generator: Adobe Illustrator 23.0.1, SVG Export Plug-In . SVG Version: 6.00 Build 0)  -->
<svg version="1.1" id="Calque_1" image-rendering="optimizeQuality" shape-rendering="geometricPrecision"
	 xmlns="http://www.w3.org/2000/svg" xmlns:xlink="http://www.w3.org/1999/xlink" x="0px" y="0px" viewBox="0 0 177.2 177.2"
	 style="enable-background:new 0 0 177.2 177.2;" xml:space="preserve">
<style type="text/css">
	.st0{fill-rule:evenodd;clip-rule:evenodd;fill:#1F1A17;}
	.st1{fill-rule:evenodd;clip-rule:evenodd;fill:#FFFFFF;}
</style>
<path class="st0" d="M88.6,164.6H41.1c-2.3-5.7-3.5-11.7-3.5-17.9c0-10.5,3.1-20,9.2-28.4c6.2-8.4,14.1-14.4,23.7-18
	c-4.1-1.9-7.5-4.7-10.1-8.5c-2.6-3.8-3.9-8.1-3.9-12.9c0-6,2-11.2,6.2-15.6c4.1-4.4,9.1-6.9,15.1-7.6c-4.8-3.5-7.2-8.1-7.2-13.8
	c0-4.8,1.7-8.9,5.3-12.3c3.5-3.4,7.7-5.1,12.7-5.1c4.9,0,9.1,1.7,12.7,5.1c3.5,3.4,5.3,7.5,5.3,12.3c0,5.7-2.4,10.3-7.2,13.8
	c6,0.7,11,3.2,15.1,7.6c4.1,4.4,6.2,9.6,6.2,15.6c0,4.8-1.3,9.1-4,12.9s-6.1,6.6-10.1,8.5c9.7,3.6,17.6,9.6,23.7,18
	c6.2,8.4,9.2,17.9,9.2,28.4c0,6.2-1.1,12.1-3.4,17.9H88.6"/>
<path class="st1" d="M88.6,158.8h43.1c1.2-4.1,1.9-8.1,1.9-12.1c0-8.9-2.5-17-7.6-24.2c-5.1-7.2-11.6-12.6-19.6-16
	c-5.6-2.2-5.8-2.3-5.8-6.2c0-3,2-5.2,5.9-6.7c5.4-3.7,8.2-8.6,8.2-14.7c0-4.4-1.5-8.2-4.6-11.6c-3.1-3.3-6.8-5.2-11.1-5.7
	c-3.5-0.3-5.3-2.2-5.3-5.8c0-1.6,0.6-3.1,1.9-4.5c3.2-2.4,4.8-5.5,4.8-9.4c0-3.2-1.2-5.9-3.5-8.2c-2.3-2.3-5.1-3.4-8.3-3.4
	c-3.3,0-6.2,1.1-8.5,3.4c-2.3,2.3-3.5,5-3.5,8.2c0,3.8,1.6,6.9,4.7,9.4c1.3,1.3,1.9,2.7,1.9,4.5c0,3.6-1.7,5.5-5.2,5.8
	c-4.4,0.5-8.1,2.4-11.1,5.7c-3,3.3-4.5,7.2-4.5,11.6c0,6.1,2.7,11,8.2,14.7c3.9,1.5,5.9,3.7,5.9,6.7c0,3.8-0.2,4-5.9,6.2
	c-8,3.4-14.5,8.8-19.5,16s-7.6,15.3-7.6,24.2c0,4.2,0.6,8.2,1.9,12.1H88.6"/>
</svg>
