<?xml version="1.0" encoding="utf-8"?>
<!-- Generator: Adobe Illustrator 23.0.1, SVG Export Plug-In . SVG Version: 6.00 Build 0)  -->
<svg version="1.1" id="Calque_1" image-rendering="optimizeQuality" shape-rendering="geometricPrecision"
	 xmlns="http://www.w3.org/2000/svg" xmlns:xlink="http://www.w3.org/1999/xlink" x="0px" y="0px" viewBox="0 0 177.2 177.2"
	 style="enable-background:new 0 0 177.2 177.2;" xml:space="preserve">
<style type="text/css">
	.st0{fill-rule:evenodd;clip-rule:evenodd;fill:#1F1A17;stroke:#1F1A17;stroke-width:7.600000e-02;}
	.st1{fill-rule:evenodd;clip-rule:evenodd;fill:#FFFFFF;stroke:#1F1A17;stroke-width:7.600000e-02;}
</style>
<g>
	<path class="st0" d="M157.8,52.2c-3.3,0-6.2-1.2-8.5-3.5c-2.3-2.3-3.5-5.1-3.5-8.5c0-3.3,1.2-6.1,3.5-8.5c2.3-2.4,5.2-3.6,8.5-3.6
		c3.3,0,6.1,1.2,8.5,3.6c2.3,2.4,3.5,5.2,3.5,8.5c0,3.4-1.2,6.2-3.5,8.5C163.9,51,161.1,52.2,157.8,52.2z M142.6,155.7
		c-2.9,2.5-9.3,4.6-19.4,6.3c-10,1.7-21.6,2.6-34.6,2.6c-13.3,0-25-0.9-35.1-2.6c-10.1-1.8-16.4-4-19.1-6.6l5.5-21.1l-2.5-13.8
		L29.8,107l-7.5-54.7l4.3-1.7l24.1,40.6l0.5-48.3l6-1l18.4,48.6l9.8-52.3h6.1l9.8,52.1l18.2-48.4l6.1,1l0.5,48.3l24.2-40.7l4.1,1.9
		l-7.3,54.4l-7.8,13.4l-2.5,14L142.6,155.7L142.6,155.7z M51.5,42.5c-3.4,0-6.2-1.1-8.6-3.5c-2.3-2.3-3.5-5.2-3.5-8.5
		c0-3.3,1.2-6.1,3.5-8.4c2.3-2.3,5.2-3.5,8.6-3.5c3.3,0,6.1,1.2,8.4,3.5c2.3,2.3,3.5,5.2,3.5,8.4c0,3.3-1.2,6.2-3.5,8.5
		C57.6,41.3,54.8,42.5,51.5,42.5z M19.1,52.2c-3.3,0-6.2-1.2-8.5-3.5c-2.3-2.3-3.5-5.1-3.5-8.5c0-3.3,1.2-6.1,3.5-8.5
		c2.3-2.4,5.1-3.6,8.5-3.6c3.4,0,6.2,1.2,8.6,3.6c2.3,2.4,3.5,5.2,3.5,8.5c0,3.4-1.2,6.2-3.5,8.5C25.3,51,22.5,52.2,19.1,52.2z
		 M88.4,38.1c-3.3,0-6.2-1.2-8.5-3.5c-2.3-2.3-3.5-5.2-3.5-8.5c0-3.3,1.1-6.1,3.5-8.5c2.3-2.3,5.2-3.5,8.5-3.5
		c3.3,0,6.1,1.2,8.5,3.5c2.4,2.3,3.5,5.2,3.5,8.5c0,3.3-1.2,6.2-3.5,8.5C94.5,36.9,91.7,38.1,88.4,38.1z M125.3,42.5
		c-3.3,0-6.2-1.1-8.5-3.5c-2.3-2.3-3.5-5.2-3.5-8.5c0-3.3,1.2-6.1,3.5-8.4c2.3-2.3,5.1-3.5,8.5-3.5c3.4,0,6.2,1.2,8.6,3.5
		c2.3,2.3,3.5,5.2,3.5,8.4c0,3.3-1.2,6.2-3.5,8.5C131.5,41.3,128.7,42.5,125.3,42.5z"/>
	<path class="st1" d="M135.4,152.5c-10.7-4.4-26.3-6.7-46.7-6.7c-20.8,0-36.5,2.3-47.2,6.8c10.3,4.1,25.9,6.1,47,6.1
		c10.1,0,19.3-0.5,27.6-1.7C124.5,156,130.9,154.5,135.4,152.5L135.4,152.5z M88.4,31.9c3.9,0,5.9-2,5.9-5.9c0-3.9-1.9-5.8-5.9-5.8
		c-3.9,0-5.8,1.9-5.8,5.8C82.6,29.9,84.5,31.9,88.4,31.9z M133.2,120.4c-11.3-2.9-26.1-4.3-44.4-4.3c-18.8,0-33.7,1.4-44.9,4.4
		l1.3,8.4c11.4-2.7,26-4.1,43.6-4.1c17.5,0,31.8,1.3,42.9,4L133.2,120.4L133.2,120.4z M135.3,115.1l5.7-10.1
		c-2.8,1.1-5.7,1.7-8.6,1.7c-7.9,0-14.1-3.2-18.8-9.6c-3.5,2.9-7.4,4.4-11.8,4.4c-5.6,0-10.1-2.2-13.4-6.6
		c-3.7,4.1-8.2,6.2-13.4,6.2c-4.2,0-8.1-1.4-11.6-4.3c-4.9,6.3-11.3,9.4-19.1,9.4c-3,0-5.9-0.5-8.9-1.7l6.2,10.5
		c11.4-3.3,27-4.9,46.9-4.9C108.6,110.1,124.3,111.8,135.3,115.1L135.3,115.1z M96,94.1l-7.5-43L81,93.6c0.2-0.1,0.6-0.4,1.2-0.9
		c1.4-2.6,3.4-4,6.2-4c3,0,4.9,1.3,5.8,4C94.6,93.1,95.2,93.6,96,94.1L96,94.1z M120.3,95.8V55.1L105.8,95c1.1-0.4,2-0.9,2.8-1.6
		c1.2-1.5,2.8-2.2,4.7-2.2c2.3,0,4.2,1,5.6,3.1c0.1,0.2,0.4,0.5,0.6,0.8C119.9,95.3,120.1,95.6,120.3,95.8L120.3,95.8z M70.9,94.6
		L56.5,55.1v40.2c0.1-0.2,0.4-0.5,0.8-0.9c1.2-2.5,3.1-3.7,5.8-3.7c2.2,0,4.1,0.9,5.5,2.8C70.1,94.2,70.9,94.6,70.9,94.6L70.9,94.6z
		 M48.6,99.5L29.7,66.9l4.8,29.7c3.3,2.3,6.6,3.5,9.8,3.5C45.5,100.1,47,99.9,48.6,99.5L48.6,99.5z M128,99.9
		c1.4,0.4,2.8,0.6,4.5,0.6c3.6,0,6.9-1.1,10-3.3l4.8-30.4L128,99.9z M133.2,144.4l-2.6-9.9c-11.5-2.5-25.5-3.8-42.2-3.8
		c-16.5,0-30.5,1.3-42.1,3.8l-2.7,10c10.9-3.3,25.9-4.9,44.9-4.9C107.1,139.6,122,141.2,133.2,144.4L133.2,144.4z M51.5,36.3
		c3.8,0,5.8-1.9,5.8-5.8s-1.9-5.8-5.8-5.8c-3.9,0-5.9,1.9-5.9,5.8S47.6,36.3,51.5,36.3z M125.3,36.3c3.9,0,5.9-1.9,5.9-5.8
		s-2-5.8-5.9-5.8c-3.8,0-5.8,1.9-5.8,5.8S121.5,36.3,125.3,36.3z M19.2,46c3.9,0,5.9-1.9,5.9-5.8c0-3.9-2-5.9-5.9-5.9
		c-3.8,0-5.8,1.9-5.8,5.9C13.4,44,15.3,46,19.2,46z M157.8,46c3.9,0,5.8-1.9,5.8-5.8c0-3.9-1.9-5.9-5.8-5.9c-3.9,0-5.9,1.9-5.9,5.9
		C152,44,153.9,46,157.8,46z"/>
</g>
</svg>
