<?xml version="1.0" encoding="utf-8"?>
<!-- Generator: Adobe Illustrator 23.0.1, SVG Export Plug-In . SVG Version: 6.00 Build 0)  -->
<svg version="1.1" id="Calque_1" image-rendering="optimizeQuality" shape-rendering="geometricPrecision"
	 xmlns="http://www.w3.org/2000/svg" xmlns:xlink="http://www.w3.org/1999/xlink" x="0px" y="0px" viewBox="0 0 177.2 177.2"
	 style="enable-background:new 0 0 177.2 177.2;" xml:space="preserve">
<style type="text/css">
	.st0{fill-rule:evenodd;clip-rule:evenodd;fill:#1F1A17;}
	.st1{fill-rule:evenodd;clip-rule:evenodd;fill:#FFFFFF;}
</style>
<path class="st0" d="M100.7,32.7h14.9v-12h24.1v32.9l-19.5,15v42l15,15v18h13.4v21h-120v-21H42v-18l15-15v-42l-19.5-15V20.6h24v12
	h15v-12h24.1L100.7,32.7z"/>
<path class="st1" d="M117.2,62.6l11.2-9.1H48.9l11.3,9.1H117.2 M142.7,149.6H34.6v9.1h108.1V149.6 M129.1,131.7H48.2v11.9h80.9
	V131.7 M114.1,68.6h-51v42h51V68.6 M133.6,47.6v-21h-12v12H94.5v-12H82.7v12h-27v-12h-12v21H133.6 M126.9,125.6l-9-9H59.5l-9.2,9
	H126.9"/>
</svg>
