<svg height="480pt" viewBox="0 -28 480 480" width="480pt" xmlns="http://www.w3.org/2000/svg"><path d="m248 48c0-22.089844-53.726562-40-120-40s-120 17.910156-120 40 53.726562 40 120 40 120-17.910156 120-40zm0 0" fill="#78b9eb"/><g fill="#1a6fb0"><path d="m128 0c-63.601562 0-128 16.480469-128 48v240c0 31.519531 64.398438 48 128 48s128-16.480469 128-48v-240c0-31.519531-64.398438-48-128-48zm112 288c0 13.039062-43.601562 32-112 32s-112-18.960938-112-32v-55.519531c23.039062 15.519531 67.679688 23.519531 112 23.519531s88.960938-8 112-23.519531zm0-80c0 13.039062-43.601562 32-112 32s-112-18.960938-112-32v-55.519531c23.039062 15.519531 67.679688 23.519531 112 23.519531s88.960938-8 112-23.519531zm0-80c0 13.039062-43.601562 32-112 32s-112-18.960938-112-32v-55.519531c23.039062 15.519531 67.679688 23.519531 112 23.519531s88.960938-8 112-23.519531zm-112-48c-68.398438 0-112-18.960938-112-32s43.601562-32 112-32 112 18.960938 112 32-43.601562 32-112 32zm0 0"/><path d="m479.9375 336.3125c0-.113281.0625-.199219.0625-.3125v-112c0-4.417969-3.582031-8-8-8h-176c-4.417969 0-8 3.582031-8 8v109.480469l-54.550781 77.933593c-1.710938 2.445313-1.917969 5.636719-.539063 8.28125 1.375 2.644532 4.109375 4.304688 7.089844 4.304688h192c3.046875.015625 5.839844-1.699219 7.199219-4.425781l40-80c.046875-.09375.058593-.199219.105469-.292969.046874-.097656.109374-.351562.183593-.527344.273438-.785156.425781-1.609375.449219-2.441406zm-175.9375-104.3125h160v96h-160zm123.054688 176h-171.695313l44.800781-64h158.894532zm0 0"/><path d="m344 240h-16c-4.417969 0-8 3.582031-8 8v64c0 4.417969 3.582031 8 8 8h16c22.089844 0 40-17.910156 40-40s-17.910156-40-40-40zm0 64h-8v-48h8c13.253906 0 24 10.746094 24 24s-10.746094 24-24 24zm0 0"/><path d="m432 240h-32c-4.417969 0-8 3.582031-8 8v64c0 4.417969 3.582031 8 8 8h32c13.253906 0 24-10.746094 24-24v-32c0-13.253906-10.746094-24-24-24zm0 16c4.417969 0 8 3.582031 8 8v8h-32v-16zm0 48h-24v-16h32v8c0 4.417969-3.582031 8-8 8zm0 0"/><path d="m304 352h48v16h-48zm0 0"/><path d="m368 352h32v16h-32zm0 0"/><path d="m296 376h80v16h-80zm0 0"/><path d="m392 376h32v16h-32zm0 0"/><path d="m376 200h16v-104c0-4.417969-3.582031-8-8-8h-112v16h104zm0 0"/></g></svg>